<svg width="1600" height="856" viewBox="0 0 1600 856" fill="none" xmlns="http://www.w3.org/2000/svg">
<path d="M850.615 622.43C859.604 622.513 869.852 626.253 881.733 634.901L882.888 635.753L882.897 635.76C913.925 660.052 939.59 690.296 966.887 718.432L969.535 721.148L969.543 721.156C981.021 733.412 992.736 745.599 1002.82 760.648L1003.18 760.558V761.041C1012.24 772.763 1020.09 788.081 1022.63 803.519C1025.18 819.03 1022.38 834.701 1010.01 846.913C1001.88 854.929 992.741 860.945 983.51 866.316C974.255 871.701 964.969 876.405 956.399 881.858C947.85 887.298 940.091 893.44 933.971 901.631C927.855 909.816 923.359 920.071 921.371 933.759C917.586 964.802 925.58 993.899 936.574 1022.5C947.553 1051.07 961.563 1079.22 969.659 1108.16C982.708 1145.17 978.996 1184.44 961.36 1214C943.71 1243.57 912.128 1263.4 869.549 1261.48V1261.47C830.267 1260.67 796.065 1245.5 763.444 1226.34C747.134 1216.76 731.202 1206.17 715.232 1195.88C699.256 1185.58 683.235 1175.57 666.719 1167.12L666.711 1167.12C650.782 1158.55 634.348 1150.45 617.901 1142.23C601.458 1134.01 585.005 1125.67 569.059 1116.61C537.168 1098.5 507.278 1077.5 483.489 1048.87L483.48 1048.86V1048.86C439.504 992.919 424.355 910.004 452.111 843.682L452.115 843.673C467.069 809.938 495.132 795.687 526.97 790.024C558.774 784.368 594.452 787.265 624.698 787.886H624.7C695.554 789.628 762.849 750.231 793.891 686.136C798.523 676.345 803.285 665.985 808.586 656.543C813.887 647.101 819.747 638.538 826.597 632.355C833.456 626.164 841.324 622.343 850.615 622.43ZM850.606 623.432C841.627 623.349 833.992 627.033 827.27 633.1C820.539 639.176 814.742 647.628 809.461 657.034C804.181 666.439 799.437 676.76 794.797 686.568L794.795 686.573C763.575 751.036 695.908 790.64 624.676 788.889V788.888C594.336 788.265 558.821 785.379 527.146 791.012C495.506 796.64 467.804 810.754 453.032 844.079C425.438 910.023 440.493 992.547 484.26 1048.23C507.94 1076.73 537.714 1097.65 569.555 1115.74C585.476 1124.78 601.907 1133.12 618.349 1141.33C634.788 1149.55 651.241 1157.66 667.186 1166.24C683.746 1174.7 699.799 1184.74 715.776 1195.04C731.762 1205.34 747.667 1215.91 763.953 1225.48C796.521 1244.61 830.549 1259.67 869.582 1260.47H869.594L870.581 1260.51C912.283 1262.07 943.17 1242.52 960.499 1213.48C977.974 1184.2 981.674 1145.23 968.703 1108.47L968.693 1108.43C960.612 1079.54 946.667 1051.56 935.637 1022.86C924.624 994.207 916.557 964.92 920.376 933.626L920.378 933.614C922.388 919.774 926.944 909.36 933.168 901.03C939.388 892.705 947.258 886.485 955.86 881.011C964.442 875.551 973.83 870.788 983.007 865.449C992.208 860.095 1001.26 854.128 1009.31 846.198C1021.38 834.274 1024.16 818.964 1021.64 803.682C1019.14 788.497 1011.42 773.38 1002.47 761.769L1002.37 761.794L1002.18 761.5C992.11 746.397 980.379 734.195 968.81 721.843V721.842C940.448 692.876 914.24 661.575 882.287 636.556C870.013 627.376 859.597 623.516 850.606 623.432ZM1352.65 754.344C1393.06 708.62 1465.15 687.522 1522.43 711.325L1523.78 711.895L1523.79 711.9L1523.81 711.907C1546.9 723.341 1562.38 742.629 1574.51 764.475C1586.26 785.618 1594.93 809.25 1604.32 830.493L1605.23 832.541L1605.23 832.545C1614.61 853.941 1623.22 875.643 1629.67 899.039L1629.65 899.044L1629.73 899.033C1640.31 932.878 1643.87 969.118 1634.77 999.502C1625.65 1029.92 1603.86 1054.42 1563.85 1064.74C1547.34 1069.72 1530.42 1072.32 1513.46 1074.57C1496.5 1076.82 1479.5 1078.71 1462.78 1082.28L1462.78 1082.27C1439.14 1087.37 1416.5 1095.59 1394.07 1104.52C1371.65 1113.44 1349.42 1123.08 1326.63 1130.98L1325.12 1131.54C1196.66 1179.2 1037.57 1123.29 970.942 1002.63C956.409 978.162 956.513 943.25 979.856 924.025L979.861 924.021C1001.25 906.878 1025.52 902.629 1051.54 903.307C1064.54 903.646 1078 905.216 1091.77 907.027C1105.54 908.839 1119.62 910.891 1133.91 912.201C1162.47 914.821 1191.78 914.469 1220.86 903.308C1249.92 892.151 1278.8 870.173 1306.46 829.453C1314.27 817.014 1320.98 803.928 1328.17 791.083C1335.35 778.249 1343 765.68 1352.64 754.352L1352.65 754.344ZM-237.022 754.344C-196.611 708.619 -124.525 687.521 -67.2395 711.324L-65.8889 711.894L-65.8762 711.899L-65.8645 711.906C-42.7752 723.34 -27.2989 742.628 -15.1594 764.474C-3.41101 785.617 5.25665 809.249 14.6492 830.492L15.5603 832.54L15.5623 832.543C24.9502 853.939 33.5616 875.642 40.0037 899.039L39.99 899.042L40.0593 899.032C50.6338 932.876 54.1978 969.115 45.0964 999.497C35.9858 1029.91 14.1924 1054.41 -25.8196 1064.74C-42.3295 1069.72 -59.249 1072.32 -76.2063 1074.57C-93.1749 1076.82 -110.17 1078.71 -126.89 1082.27L-126.891 1082.27C-150.533 1087.37 -173.169 1095.59 -195.604 1104.52C-218.027 1113.44 -240.271 1123.08 -263.066 1130.98C-391.772 1179.63 -551.853 1123.76 -618.728 1002.63L-619.399 1001.47C-633.262 977.074 -632.803 942.948 -609.815 924.024L-609.809 924.02C-588.415 906.877 -564.156 902.628 -538.136 903.306C-525.13 903.645 -511.671 905.215 -497.904 907.026C-484.129 908.838 -470.049 910.89 -455.765 912.2C-427.203 914.82 -397.893 914.468 -368.819 903.307C-339.752 892.15 -310.87 870.169 -283.205 829.442C-275.405 817.001 -268.695 803.919 -261.506 791.078C-254.322 778.246 -246.674 765.679 -237.028 754.351L-237.022 754.344ZM1523.38 712.813C1466.33 688.307 1393.88 709.209 1353.4 755.01C1343.82 766.26 1336.21 778.758 1329.04 791.573C1321.88 804.377 1315.13 817.524 1307.31 829.992L1307.3 830L1307.3 830.007C1279.54 870.871 1250.51 893.001 1221.22 904.245C1191.93 915.486 1162.44 915.827 1133.82 913.201C1119.51 911.888 1105.4 909.832 1091.64 908.022C1077.87 906.212 1064.46 904.648 1051.51 904.31C1025.62 903.635 1001.63 907.866 980.489 924.804L980.488 924.803C958.009 943.322 957.449 976.859 971.142 1000.97L971.804 1002.11L971.809 1002.12L971.813 1002.13C1038.45 1122.82 1198 1178.53 1326.27 1130.04L1326.29 1130.03C1349.05 1122.14 1371.24 1112.52 1393.7 1103.59C1416.15 1094.66 1438.84 1086.41 1462.57 1081.29H1462.57C1479.34 1077.72 1496.39 1075.82 1513.33 1073.57C1530.28 1071.32 1547.14 1068.73 1563.56 1063.78L1563.57 1063.78L1563.58 1063.78C1603.26 1053.54 1624.79 1029.3 1633.81 999.214C1642.81 969.167 1639.33 933.251 1628.85 899.588L1628.78 899.564L1628.71 899.306C1622.27 875.976 1613.68 854.323 1604.31 832.947V832.946C1594.52 811.085 1585.74 786.74 1573.64 764.963C1561.55 743.212 1546.21 724.122 1523.38 712.813ZM-66.2932 712.812C-123.339 688.308 -195.784 709.205 -236.264 755.001C-245.846 766.253 -253.456 778.752 -260.631 791.568C-267.798 804.371 -274.543 817.517 -282.365 829.99L-282.369 829.998L-282.375 830.006C-310.133 870.869 -339.167 893 -368.458 904.244C-397.741 915.485 -427.231 915.826 -455.857 913.2C-470.166 911.887 -484.278 909.831 -498.034 908.021C-511.798 906.211 -525.213 904.647 -538.162 904.309C-564.055 903.635 -588.044 907.865 -609.182 924.803L-609.183 924.802C-632.028 943.614 -632.243 977.927 -617.865 1002.11L-617.862 1002.12L-617.858 1002.13C-551.234 1122.82 -391.67 1178.53 -263.407 1130.04L-263.395 1130.03C-240.628 1122.14 -218.436 1112.52 -195.975 1103.59C-173.526 1094.65 -150.826 1086.41 -127.1 1081.29H-127.099C-110.329 1077.72 -93.2777 1075.82 -76.3381 1073.57C-59.3873 1071.32 -42.5359 1068.73 -26.1086 1063.78L-26.0989 1063.78L-26.0891 1063.78C13.5905 1053.54 35.1219 1029.29 44.1345 999.209C53.135 969.163 49.6583 933.25 39.1794 899.587L39.1072 899.563L39.0359 899.304C32.6121 875.975 24.0222 854.322 14.6433 832.946V832.945C4.85223 811.084 -3.93567 786.739 -16.0364 764.962C-28.1229 743.211 -43.468 724.121 -66.2932 712.812ZM875.577 740.94C883.139 741.041 890.944 743.2 899.311 747.965L900.123 748.434L900.148 748.45C919.133 761.157 927.228 779.876 927.097 799.281C926.967 818.669 918.63 838.736 904.779 854.217C884.476 876.936 874.505 898.919 870.447 922.367C866.64 944.367 868.034 967.679 871.026 994.146L871.645 999.482L871.646 999.49V999.498C875.781 1046.77 863.024 1073.22 840.529 1084.91C818.106 1096.57 786.212 1093.43 752.356 1082.08C718.471 1070.72 682.493 1051.08 651.804 1029.54C621.187 1008.06 595.786 984.645 582.982 965.626L582.919 965.541C570.095 948.492 558.636 925.519 556.476 904.014C555.396 893.255 556.641 882.838 561.234 873.716C565.831 864.586 573.76 856.793 585.973 851.257L585.984 851.252C600.75 844.994 616.338 843.215 632.06 842.471L632.077 842.47L632.094 842.471C717.116 844.214 766.726 810.654 803.722 781.668C822.202 767.189 837.616 753.778 852.705 746.548C860.266 742.924 867.774 740.836 875.577 740.94ZM875.563 741.943C867.955 741.842 860.601 743.876 853.138 747.452C838.18 754.62 822.899 767.918 804.342 782.458C767.265 811.507 717.433 845.221 632.085 843.474C616.407 844.217 600.976 845.991 586.387 852.171L585.272 852.688C573.878 858.102 566.473 865.542 562.131 874.167C557.645 883.076 556.408 893.29 557.475 903.914C559.611 925.174 570.963 947.975 583.72 964.937L583.442 965.146L583.736 964.949C596.414 983.839 621.741 1007.22 652.381 1028.72C683.012 1050.22 718.904 1069.8 752.676 1081.13C786.475 1092.46 818.024 1095.48 840.066 1084.02C862.033 1072.6 874.763 1046.68 870.648 999.6L870.029 994.261C867.034 967.775 865.625 944.343 869.458 922.196C873.549 898.554 883.609 876.399 904.031 853.547C917.738 838.227 925.966 818.391 926.094 799.275C926.223 780.178 918.272 761.792 899.598 749.29C891.056 744.278 883.164 742.045 875.563 741.943ZM-188.434 803.159C-158.619 780.78 -128.483 781.43 -102.111 795.383C-75.7745 809.316 -53.2102 836.5 -38.385 867.177C-23.56 897.855 -16.4346 932.106 -21.0608 960.224C-23.3748 974.289 -28.6332 986.837 -37.3586 996.626C-46.0881 1006.42 -58.2629 1013.42 -74.3547 1016.43L-74.9485 1016.54V1016.5C-115.032 1024.13 -155.496 1028.48 -193.583 1043.96L-193.593 1043.97L-193.604 1043.97C-234.638 1058.65 -275.162 1077.15 -318.755 1083.41C-331.85 1086.66 -348.695 1085.8 -365.636 1081.77C-382.595 1077.74 -399.699 1070.54 -413.299 1061.06C-426.89 1051.59 -437.041 1039.81 -439.975 1026.62C-442.917 1013.38 -438.571 998.859 -423.452 983.998L-423.435 983.98L-423.415 983.966C-414.143 976.476 -403.566 971.502 -392.609 967.398C-387.13 965.346 -381.548 963.508 -375.986 961.683C-370.42 959.857 -364.873 958.044 -359.447 956.036L-359.435 956.031L-359.423 956.027C-309.234 940.232 -283.397 916.461 -261.67 889.44C-239.949 862.425 -222.246 832.011 -188.458 803.178L-188.446 803.169L-188.434 803.159ZM1401.23 803.16C1431.04 780.784 1461.18 781.434 1487.56 795.387C1513.89 809.322 1536.46 836.505 1551.28 867.182C1566.11 897.859 1573.24 932.109 1568.61 960.226C1566.3 974.291 1561.04 986.839 1552.31 996.628C1543.58 1006.42 1531.41 1013.42 1515.32 1016.43L1514.72 1016.54V1016.5C1474.64 1024.13 1434.17 1028.48 1396.08 1043.96L1396.07 1043.97L1396.06 1043.97C1355.03 1058.65 1314.51 1077.16 1270.92 1083.41C1257.82 1086.66 1240.98 1085.8 1224.04 1081.77C1207.08 1077.74 1189.97 1070.53 1176.38 1061.06C1162.79 1051.59 1152.63 1039.81 1149.7 1026.62C1146.76 1013.38 1151.1 998.86 1166.22 983.999L1166.24 983.981L1166.25 983.967C1175.52 976.477 1186.1 971.504 1197.06 967.399C1202.54 965.347 1208.12 963.509 1213.68 961.684C1219.25 959.858 1224.8 958.045 1230.22 956.037L1230.24 956.032L1230.25 956.028C1280.43 940.233 1306.27 916.467 1327.99 889.448C1349.72 862.436 1367.42 832.023 1401.2 803.18L1401.21 803.17L1401.23 803.16ZM-102.579 796.269C-128.629 782.487 -158.342 781.832 -187.82 803.952C-221.505 832.701 -239.065 862.927 -260.889 890.069C-282.71 917.208 -308.704 941.118 -359.122 956.985L-359.123 956.984C-364.563 958.997 -370.12 960.814 -375.673 962.636C-381.238 964.462 -386.8 966.294 -392.256 968.338C-403.16 972.422 -413.615 977.344 -422.763 984.727C-437.695 999.411 -441.842 1013.6 -438.995 1026.4C-436.139 1039.25 -426.216 1050.84 -412.725 1060.24C-399.243 1069.63 -382.26 1076.79 -365.405 1080.8C-348.543 1084.8 -331.859 1085.64 -318.97 1082.43L-318.945 1082.42L-318.92 1082.42C-275.452 1076.19 -235.093 1057.75 -193.942 1043.02C-155.55 1027.42 -114.703 1023.08 -74.5413 1015.41L-73.9446 1015.29V1015.33C-58.3463 1012.3 -46.5686 1005.45 -38.1077 995.959C-29.5357 986.342 -24.3415 973.983 -22.051 960.061C-17.4681 932.207 -24.524 898.168 -39.2893 867.614C-54.0545 837.061 -76.4901 810.073 -102.579 796.269ZM1487.09 796.274C1461.04 782.492 1431.33 781.835 1401.85 803.948C1368.16 832.709 1350.6 862.935 1328.78 890.077C1306.96 917.214 1280.96 941.119 1230.55 956.986L1230.55 956.985C1225.11 958.998 1219.55 960.815 1214 962.637C1208.43 964.463 1202.87 966.295 1197.41 968.339C1186.5 972.423 1176.05 977.347 1166.9 984.731C1151.98 999.414 1147.83 1013.6 1150.68 1026.4C1153.54 1039.24 1163.46 1050.84 1176.95 1060.24C1190.43 1069.63 1207.41 1076.79 1224.27 1080.79C1241.13 1084.8 1257.81 1085.64 1270.7 1082.43L1270.73 1082.43L1270.75 1082.42C1314.22 1076.19 1354.58 1057.75 1395.72 1043.03C1434.12 1027.42 1474.97 1023.08 1515.13 1015.41L1515.73 1015.29V1015.33C1531.32 1012.3 1543.1 1005.45 1551.56 995.96C1560.14 986.343 1565.33 973.984 1567.62 960.063C1572.2 932.209 1565.15 898.172 1550.38 867.619C1535.61 837.066 1513.18 810.078 1487.09 796.274ZM63.4861 379.635C78.6618 375.529 94.5365 376.738 107.931 387.823H107.932C116.723 395.108 123.626 403.594 129.898 412.241C136.187 420.911 141.802 429.683 148.092 437.665C154.366 445.628 161.26 452.734 170.026 458.001C178.787 463.264 189.445 466.705 203.264 467.302H203.263C234.532 467.949 262.678 457.066 290.032 443.25C317.348 429.453 343.948 412.682 371.936 401.723C407.45 385.012 446.896 384.76 478.074 399.338C509.274 413.926 532.165 443.355 534.533 485.908L534.671 487.741C537.325 526.189 525.791 561.163 510.253 595.003C502.361 612.189 493.428 629.101 484.792 646.023C476.152 662.952 467.805 679.899 461.068 697.183L461.064 697.193C454.133 713.904 447.73 731.07 441.206 748.26C434.682 765.447 428.038 782.655 420.632 799.429C405.818 832.979 387.943 864.824 361.835 891.365L361.826 891.374C310.587 940.752 229.633 964.15 160.846 943.218L160.836 943.215V943.214C125.764 931.723 108.758 905.236 99.9226 874.128C91.0971 843.053 90.3987 807.263 87.9939 777.096L87.9929 777.094C82.5779 706.41 36.6752 643.42 -30.262 618.972V618.971C-40.4704 615.34 -51.257 611.64 -61.1829 607.312C-71.1088 602.985 -80.2142 598.013 -87.053 591.818C-93.9002 585.616 -98.4919 578.172 -99.3411 568.918C-100.189 559.676 -97.2971 548.705 -89.3391 535.457L-89.3333 535.447L-88.3088 533.84C-66.7001 500.15 -38.6272 471.222 -13.1125 440.666L-13.1057 440.658C-2.03619 427.97 8.93884 415.07 22.949 403.492L23.0554 403.391C33.8176 393.153 48.3226 383.737 63.4861 379.635ZM107.292 388.596C94.2125 377.772 78.7003 376.558 63.7488 380.603C48.8575 384.632 34.561 393.874 23.9031 403.971V404.266H23.5886C9.65729 415.779 -1.26166 428.607 -12.343 441.308C-38.3259 472.426 -66.7866 501.672 -88.4797 535.972L-88.4788 535.973C-96.3724 549.114 -99.1638 559.87 -98.342 568.826C-97.5214 577.77 -93.09 584.996 -86.3792 591.075C-79.6596 597.161 -70.6706 602.081 -60.7825 606.392C-53.3674 609.625 -45.4688 612.507 -37.6682 615.281L-29.9211 618.028L-29.9172 618.029C37.4038 642.617 83.5496 705.956 88.9939 777.016L89.2156 779.869C91.4576 809.498 92.3725 843.872 100.887 873.853C109.668 904.768 126.501 930.908 161.147 942.26C229.548 963.071 310.126 939.802 361.13 890.651C387.112 864.235 404.926 832.517 419.714 799.024C427.109 782.276 433.745 765.09 440.267 747.904C446.789 730.722 453.199 713.537 460.137 696.808C466.893 679.478 475.257 662.497 483.897 645.567C492.542 628.628 501.461 611.746 509.341 594.585C525.098 560.267 536.669 524.906 533.533 485.988L533.532 485.975C531.189 443.793 508.525 414.682 477.649 400.246C446.756 385.801 407.612 386.037 372.34 402.643L372.324 402.65L372.308 402.656C344.369 413.595 317.927 430.284 290.484 444.145C263.081 457.986 234.753 468.959 203.232 468.305H203.221C189.247 467.702 178.425 464.217 169.51 458.86C160.599 453.507 153.617 446.299 147.303 438.286C141.005 430.293 135.321 421.427 129.086 412.831C123.029 404.481 116.415 396.328 108.101 389.274L107.292 388.596ZM1185.88 515.023C1210.35 506.086 1232.43 511.602 1249.78 524.945C1266.85 538.068 1279.36 558.755 1285.14 580.712L1285.41 581.758L1285.41 581.764C1291.81 608.61 1300.14 637.05 1303.31 665.326C1306.48 693.62 1304.48 721.822 1290.16 748.233L1290.16 748.234C1270.19 784.735 1242.4 816.507 1213.52 846.133L1213.51 846.139C1199.54 859.921 1186.3 867.743 1173.8 870.836C1161.28 873.93 1149.53 872.278 1138.56 867.184C1116.66 857.015 1097.87 833.127 1082.11 805.911L1081.07 804.22C1070.28 786.809 1058.02 771.129 1046.91 756.248C1035.45 740.903 1025.22 726.398 1019.18 711.778C1013.14 697.139 1011.29 682.362 1016.63 666.489C1021.96 650.635 1034.44 633.749 1056.92 614.836L1056.92 614.833H1056.92C1067.31 606.268 1077.36 597.013 1087.38 587.626C1097.41 578.242 1107.42 568.724 1117.73 559.651C1138.35 541.505 1160.19 525.104 1185.87 515.027L1185.88 515.023ZM1249.17 525.741C1232.06 512.585 1210.34 507.16 1186.23 515.961C1160.72 525.975 1138.98 542.287 1118.39 560.405C1108.1 569.465 1098.1 578.967 1088.07 588.358C1078.04 597.745 1067.98 607.018 1057.56 615.603L1057.56 615.604C1035.16 634.456 1022.83 651.199 1017.58 666.809C1012.34 682.401 1014.13 696.924 1020.11 711.394C1026.09 725.883 1036.25 740.296 1047.71 755.647C1059.16 770.983 1071.9 787.247 1082.97 805.387L1082.98 805.398H1082.97C1098.72 832.592 1117.38 856.243 1138.98 866.274C1149.77 871.281 1161.28 872.896 1173.56 869.861C1185.84 866.824 1198.92 859.122 1212.8 845.426C1241.67 815.822 1269.37 784.129 1289.28 747.753C1303.46 721.587 1305.47 693.614 1302.31 665.437C1299.16 637.245 1290.85 608.918 1284.44 582.005L1284.17 580.967C1278.43 559.188 1266.04 538.706 1249.17 525.741ZM68.8552 475.11C88.1503 473.282 108.949 479.553 125.76 491.774C150.391 509.695 173.276 517.406 197.023 519.084C220.789 520.763 245.443 516.403 273.626 510.137L273.641 510.133C320.263 501.282 347.866 511.324 361.763 532.533C375.617 553.674 375.706 585.721 367.815 620.546C359.918 655.4 343.997 693.167 325.653 725.864C307.461 758.291 286.856 785.781 269.288 800.502L269.767 800.981H268.711C253.041 815.395 231.418 829.028 210.315 833.322C199.725 835.477 189.241 835.285 179.705 831.633C170.162 827.978 161.61 820.874 154.868 809.283L154.862 809.271C147.172 795.203 143.809 779.887 141.498 764.314L141.496 764.298L141.495 764.281C134.669 679.514 96.3029 633.533 63.7537 599.643C47.4953 582.715 32.6068 568.731 23.8972 554.448C19.533 547.291 16.7007 540.032 16.0183 532.259C15.3358 524.483 16.8085 516.227 20.9988 507.085L21.0046 507.071L21.0115 507.058C31.7457 486.885 49.5433 476.94 68.8552 475.11ZM125.171 492.586C108.533 480.491 87.9739 474.307 68.95 476.109C49.9475 477.91 32.4677 487.675 21.905 507.514C17.7797 516.52 16.3536 524.597 17.0183 532.171C17.6837 539.75 20.447 546.861 24.7546 553.926C33.3892 568.085 48.151 581.949 64.4773 598.948C97.0958 632.91 135.636 679.095 142.493 764.182C144.798 779.711 148.139 794.875 155.736 808.778L156.363 809.835C162.901 820.624 171.049 827.242 180.064 830.695C189.377 834.262 199.658 834.466 210.115 832.339C230.88 828.113 252.239 814.708 267.809 800.443L267.802 800.435L268.002 800.268C268.059 800.215 268.118 800.164 268.176 800.111L268.32 799.978H268.351C285.845 785.434 306.508 757.939 324.778 725.373C343.087 692.737 358.966 655.061 366.837 620.324C374.714 585.558 374.541 553.866 360.924 533.084C347.352 512.372 320.279 502.304 273.844 511.116L268.597 512.268C242.561 517.909 219.382 521.669 196.953 520.085C173.01 518.393 149.946 510.612 125.171 492.586ZM1166.19 599.305C1183.75 588.748 1199.96 587.867 1212.5 594.61C1224.84 601.241 1233.51 615.174 1236.46 634.18L1236.59 635.09L1236.6 635.101C1239.18 656.739 1243.05 681.845 1242.93 706.251C1242.82 730.66 1238.72 754.453 1225.31 773.463L1225.29 773.483L1225.28 773.502C1215.65 784.606 1205.5 788.927 1195.27 788.643C1185.07 788.361 1174.88 783.503 1165.15 776.434C1145.7 762.309 1127.83 739.144 1115.14 725.209L1115.13 725.201C1102.92 711.194 1097.04 698.17 1095.87 686.025C1094.69 673.877 1098.23 662.671 1104.76 652.314C1117.79 631.633 1142.78 614.248 1166.18 599.312L1166.19 599.305ZM1212.03 595.494C1199.88 588.963 1184.05 589.737 1166.71 600.165C1143.29 615.114 1118.5 632.39 1105.61 652.849C1099.17 663.065 1095.72 674.051 1096.86 685.929C1098.01 697.807 1103.77 710.639 1115.88 724.533C1128.66 738.568 1146.4 761.578 1165.74 775.623C1175.4 782.639 1185.39 787.366 1195.3 787.64C1205.17 787.914 1215.04 783.768 1224.5 772.862C1237.73 754.1 1241.82 730.558 1241.93 706.246C1242.04 681.925 1238.19 656.916 1235.6 635.232C1232.82 615.966 1224.2 602.033 1212.03 595.494ZM853.704 93.4676C889.514 89.029 928.524 102.114 967.475 129.085L967.484 129.092C1003.17 154.945 1053.94 197.598 1097.85 244.661C1119.81 268.193 1140.06 292.836 1155.86 317.039C1171.65 341.235 1183.01 365.021 1187.16 386.838L1187.44 388.347C1199.19 452.165 1148.78 506.943 1092.19 527.758C1062.5 539.039 1031.48 544.24 1000.18 547.934C968.855 551.632 937.292 553.817 906.407 559.063H906.402C813.006 574.095 724.738 628.6 672.689 707.706V707.731L672.634 707.84C654.817 742.474 621.857 757.292 594.056 756.036C580.158 755.408 567.518 750.759 558.711 742.523C549.9 734.284 544.962 722.485 546.418 707.645C544.312 676.002 551.855 646.692 565.729 618.601C574.271 601.02 584.334 584.313 594.577 567.728C604.824 551.137 615.248 534.674 624.538 517.554L624.543 517.545C651.234 470.642 658.279 416.894 667.146 364.412C677.775 289.594 720.135 225.413 759.365 162.791C785.352 119.879 817.874 97.9087 853.704 93.4676ZM966.895 129.903C928.063 103.017 889.303 90.0665 853.827 94.4637C818.369 98.8588 786.087 120.598 760.219 163.317L760.216 163.324C720.948 226.005 678.728 289.997 668.138 364.566L668.136 364.58L667.641 364.496L668.135 364.58C659.28 416.992 652.214 470.948 625.415 518.041C616.109 535.189 605.667 551.682 595.43 568.256C585.188 584.839 575.149 601.51 566.631 619.043L566.63 619.046C552.811 647.024 545.321 676.17 547.422 707.617L547.424 707.658L547.42 707.699C545.979 722.259 550.812 733.762 559.396 741.79C567.992 749.829 580.387 754.413 594.101 755.033C621.334 756.264 653.652 741.856 671.366 708.101H671.227L671.738 707.324C723.528 628.497 811.137 574.014 904.048 558.433L906.243 558.073C937.157 552.822 968.807 550.626 1000.06 546.937C1031.34 543.246 1062.26 538.055 1091.84 526.817L1091.84 526.816C1148.65 505.925 1198.86 450.809 1186.17 387.034L1186.17 387.03C1182.06 365.394 1170.78 341.732 1155.02 317.587C1139.26 293.447 1119.05 268.85 1097.11 245.346C1053.25 198.335 1002.53 155.724 966.895 129.904V129.903ZM1053.12 -33.3498C1100.29 -39.5623 1130.18 -39.2147 1152.2 -30.6633C1173.57 -22.3665 1187.45 -6.3783 1202.5 18.573L1203.96 21.0154L1203.98 21.0437L1203.99 21.074C1221.57 62.1628 1243.66 87.7346 1268.76 104.232C1293.86 120.735 1322 128.186 1351.73 132.963C1366.6 135.351 1381.85 137.07 1397.31 138.922C1412.77 140.773 1428.43 142.755 1444.11 145.673C1475.22 151.463 1506.4 160.936 1536.14 180.377V180.092L1536.98 180.85C1588.86 227.808 1623.91 293.384 1611.62 385.253C1606.51 451.289 1583.73 520.474 1528.34 561.1C1471.18 606.453 1379.04 613.007 1327.99 554.825V554.824C1291.51 514.617 1275.42 461.111 1255.19 411.975L1255.19 411.96L1255.18 411.943C1229.32 334.558 1197.97 249.714 1150.26 180.995C1102.56 112.289 1038.52 59.7341 947.258 46.8582L947.174 46.8455L947.097 46.8064C939.761 43.0086 934.804 39.0255 931.922 34.9197C929.027 30.7968 928.234 26.5605 929.214 22.3269C930.188 18.1154 932.905 13.9545 936.933 9.92459C940.965 5.89133 946.34 1.95959 952.684 -1.79123C977.652 -16.5521 1017.9 -28.6642 1051.53 -33.1418L1053.12 -33.3498ZM1151.84 -29.7278C1130.08 -38.1793 1100.41 -38.5651 1053.25 -32.3537H1053.25C1019.4 -28.0642 978.409 -15.8333 953.195 -0.926971C946.895 2.79755 941.596 6.67929 937.643 10.6336C933.687 14.5911 931.108 18.5923 930.191 22.5525C929.28 26.4907 930.001 30.4373 932.743 34.3426C935.487 38.2515 940.265 42.1288 947.484 45.8758C1039.05 58.8227 1103.29 111.582 1151.09 180.423C1198.88 249.265 1230.27 334.224 1256.13 411.605C1276.25 460.49 1292.16 513.29 1327.89 553.216L1328.74 554.156L1328.74 554.163C1379.34 611.828 1470.85 605.442 1527.73 560.303L1527.74 560.291C1582.8 519.911 1605.52 451.071 1610.63 385.161L1610.63 385.147L1610.63 385.134C1622.85 293.757 1588.08 228.544 1536.51 181.782L1536.47 181.793L1536.28 181.671C1506.49 162.02 1475.21 152.48 1443.93 146.659C1428.28 143.748 1412.64 141.768 1397.19 139.918C1381.74 138.068 1366.46 136.346 1351.57 133.953C1321.79 129.167 1293.48 121.688 1268.2 105.071C1242.93 88.453 1220.73 62.7224 1203.09 21.5027C1187.5 -4.78619 1173.57 -21.2917 1151.84 -29.7278ZM832.824 216.436C856.312 197.181 883.802 187.188 915.652 192.174C941.731 193.987 973.582 209.776 1003.72 232.782C1033.87 255.805 1062.38 286.109 1081.76 317.043C1101.12 347.954 1111.43 379.598 1104.99 405.257C1098.54 430.991 1075.31 450.49 1028.15 457.231L1028.14 457.233L1028.13 457.234C992.315 460.917 955.593 462.446 919.769 467.781C883.97 473.113 849.156 482.237 817.26 501.074L817.234 501.088C812.518 503.52 807.884 506.188 803.25 508.894C798.619 511.599 793.983 514.344 789.277 516.923C779.863 522.08 770.13 526.589 759.461 528.811L759.46 528.81C745.253 531.873 734.43 527.974 727.44 519.955C720.711 512.234 717.595 500.763 718.341 488.212L718.225 488.328L718.417 486.868C724.678 439.035 742.166 360.443 773.959 296.278C789.855 264.196 809.344 235.686 832.824 216.436ZM915.518 193.169C883.991 188.227 856.774 198.099 833.461 217.212C810.134 236.335 790.722 264.707 774.858 296.723C743.211 360.595 725.753 438.836 719.46 486.638L719.434 486.953C718.393 499.843 721.456 511.562 728.197 519.296C734.916 527.004 745.352 530.827 759.253 527.83L759.257 527.829C769.783 525.636 779.414 521.182 788.795 516.043C793.485 513.473 798.105 510.737 802.744 508.027C807.373 505.323 812.02 502.648 816.755 500.206C848.804 481.28 883.758 472.13 919.622 466.789C955.457 461.452 992.291 459.91 1028.01 456.238C1074.96 449.526 1097.71 430.19 1104.02 405.013C1110.35 379.76 1100.23 348.417 1080.91 317.575C1061.6 286.755 1033.18 256.537 1003.11 233.579C973.021 210.61 941.353 194.96 915.561 193.174L915.54 193.172L915.518 193.169ZM1152.4 84.4363C1154.91 83.9983 1157.9 84.463 1161.31 85.9226C1167.92 88.748 1176.23 95.353 1185.95 106.761L1186.9 107.88L1186.91 107.891L1186.91 107.903C1218.02 149.945 1254.18 186.961 1309.16 190.918C1322.88 191.9 1337.21 191.954 1351.61 192.26C1366 192.565 1380.46 193.121 1394.39 195.115C1422.25 199.102 1448.05 208.845 1467.08 233.857C1533.63 308.434 1515.56 408.745 1470.03 461.211C1447.27 487.449 1417.55 501.813 1388.03 494.88C1358.53 487.947 1329.45 459.776 1307.84 401.451L1307.8 401.367V401.345C1287.08 334.977 1270.99 295.518 1249.61 259.305C1228.21 223.066 1201.49 190.066 1159.47 136.592L1159.46 136.574C1152.01 126.166 1147.41 116.151 1145.34 107.728C1143.28 99.3355 1143.71 92.4158 1146.49 88.3006C1147.89 86.2242 1149.88 84.8769 1152.4 84.4363ZM1160.92 86.8455C1157.62 85.4345 1154.83 85.0304 1152.57 85.4246C1150.33 85.8163 1148.57 87.0023 1147.32 88.8621C1144.78 92.6199 1144.28 99.1838 1146.32 107.489C1148.35 115.762 1152.89 125.657 1160.27 135.978C1202.26 189.422 1229.03 222.486 1250.47 258.795C1271.92 295.117 1288.04 334.676 1308.78 401.118L1308.8 401.163C1330.36 459.313 1359.25 487.085 1388.26 493.902C1417.28 500.72 1446.65 486.629 1469.28 460.554C1514.54 408.393 1532.49 308.648 1466.33 234.515L1466.31 234.501L1466.3 234.485C1447.48 209.745 1421.97 200.077 1394.24 196.109C1380.38 194.125 1365.97 193.568 1351.59 193.262C1337.21 192.957 1322.84 192.903 1309.09 191.919C1253.65 187.928 1217.25 150.585 1186.12 108.512C1176.03 96.4692 1167.52 89.6697 1160.92 86.8455ZM404.237 -2.44357C455.405 -35.7131 530.464 -36.8439 579.351 1.37186L580.501 2.28201L580.522 2.29959C599.721 19.4703 609.498 42.1892 615.374 66.4832C621.06 89.9951 623.11 115.083 626.478 138.053L626.808 140.269V140.273C630.15 163.374 632.652 186.59 632.635 210.846V211.166C633.891 246.26 627.515 282.106 610.588 308.994C593.592 335.99 565.977 353.922 524.911 352.993C507.68 353.384 490.684 351.373 473.747 349.014C456.795 346.654 439.911 343.948 422.856 342.936V342.935C398.713 341.548 374.703 343.427 350.699 346.042C326.711 348.655 302.706 352.007 278.634 353.554C141.632 366.107 2.21936 269.578 -29.9016 134.987C-37.4005 107.534 -27.981 73.9029 -0.336182 61.6072L-0.330322 61.6043C24.8893 50.7941 49.412 53.173 74.3074 60.7693C86.7513 64.5664 99.3003 69.6705 112.082 75.0887C124.87 80.5098 137.888 86.2437 151.3 91.3172C178.118 101.462 206.451 108.941 237.451 105.942C268.439 102.944 302.147 89.4692 339.702 57.6101C350.539 47.7007 360.496 36.8789 370.85 26.4178C381.194 15.9678 391.914 5.8989 404.229 -2.43869L404.237 -2.44357ZM579.865 3.0574C531.394 -35.7698 456.044 -34.9289 404.791 -1.60861L404.792 -1.60764C392.56 6.67398 381.894 16.6869 371.563 27.1238C361.244 37.5495 351.24 48.4201 340.38 58.3513L340.373 58.3572L340.365 58.3631C302.678 90.3379 268.779 103.919 237.548 106.941C206.325 109.962 177.822 102.423 150.944 92.2556C137.508 87.173 124.461 81.4263 111.69 76.0125C98.9119 70.5957 86.4043 65.5098 74.0144 61.7293C49.2432 54.1709 24.9872 51.8445 0.0700684 62.5232L0.0710449 62.5242C-26.556 74.3674 -36.0504 106.554 -29.2688 133.446L-28.9329 134.722L-28.9309 134.73L-28.929 134.739C3.06573 268.837 142.018 365.066 278.546 352.554L278.559 352.553L280.813 352.403C304.103 350.8 327.309 347.58 350.591 345.044C374.61 342.427 398.686 340.542 422.915 341.934H422.916C440.022 342.95 456.961 345.664 473.885 348.02C490.819 350.378 507.751 352.38 524.899 351.99H524.922C565.631 352.914 592.923 335.169 609.739 308.459C626.573 281.719 632.924 245.96 631.622 210.885L631.602 210.364H631.63C631.614 186.351 629.131 163.342 625.815 140.417V140.416C622.23 116.745 620.255 90.9359 614.398 66.7195C608.548 42.5307 598.844 20.0372 579.865 3.0574ZM437.958 57.5037C472.679 43.8997 501.557 52.5768 523.254 73.0691C544.92 93.5337 559.411 125.76 565.51 159.284C571.61 192.808 569.335 227.717 557.374 253.572C551.391 266.505 542.975 277.19 531.956 284.287C520.937 291.383 507.347 294.872 491.052 293.471H490.237L490.288 293.367C449.66 290.031 409.535 283.458 368.761 288.209L368.74 288.211C325.261 291.397 281.29 298.429 237.595 292.826C224.108 292.461 208.103 287.133 192.848 278.736C177.579 270.331 163.017 258.826 152.437 246.07C141.865 233.323 135.222 219.266 135.915 205.768C136.609 192.232 144.672 179.394 163.208 169.1L163.228 169.089L163.251 169.079C174.185 164.326 185.702 162.352 197.356 161.319C203.183 160.802 209.052 160.52 214.901 160.245C220.753 159.97 226.585 159.702 232.354 159.214L232.367 159.213H232.38C284.972 157.37 316.213 141.361 344.358 121.122C372.497 100.887 397.669 76.3044 437.928 57.5164L437.943 57.5096L437.958 57.5037ZM522.565 73.7986C501.133 53.556 472.665 44.9876 438.336 58.4334C398.198 77.1681 373.215 101.607 344.944 121.936C316.68 142.261 285.257 158.359 232.439 160.214L230.264 160.387C225.185 160.771 220.065 161.007 214.948 161.248C209.097 161.523 203.248 161.804 197.445 162.318C185.846 163.347 174.458 165.305 163.671 169.99C145.367 180.162 137.589 192.724 136.917 205.819C136.243 218.96 142.714 232.775 153.209 245.43C163.697 258.075 178.156 269.503 193.333 277.857C208.04 285.953 223.381 291.14 236.396 291.778L237.649 291.825L237.675 291.826L237.699 291.829C281.264 297.42 325.054 290.406 368.654 287.21C409.803 282.417 450.343 289.121 491.11 292.429L491.85 292.489L491.832 292.524C507.618 293.752 520.754 290.308 531.413 283.443C542.238 276.471 550.541 265.952 556.464 253.151C568.313 227.538 570.598 192.852 564.523 159.464C558.448 126.075 544.029 94.0716 522.565 73.7986ZM759.602 -254.764C784.252 -261.774 803.691 -258.534 819.051 -248.602C834.389 -238.683 845.595 -222.131 853.885 -202.636C870.463 -163.654 875.471 -112.678 878.39 -78.6477L878.392 -78.6262V-78.5901C878.11 -47.3084 865.176 -19.3773 847.397 6.12283C829.625 31.6149 806.97 54.7322 787.217 76.3553L787.207 76.366L787.197 76.3758C772.117 91.1264 758.069 99.0371 744.951 101.687C731.822 104.339 719.676 101.712 708.432 95.489C685.992 83.0695 667.096 56.2998 650.913 28.4617C639.446 11.0128 627.099 -4.58218 616.326 -19.3469C605.566 -34.093 596.38 -48.0072 591.317 -62.0266C586.248 -76.0661 585.31 -90.2201 591.049 -105.421C596.78 -120.603 609.153 -136.784 630.605 -154.929L630.61 -154.933C640.999 -163.5 651.042 -172.756 661.069 -182.144C671.093 -191.528 681.104 -201.047 691.413 -210.119C712.032 -228.265 733.884 -244.666 759.555 -254.748L759.579 -254.757L759.602 -254.764ZM818.506 -247.759C803.429 -257.508 784.303 -260.742 759.898 -253.806C734.398 -243.786 712.657 -227.478 692.076 -209.365C681.782 -200.306 671.786 -190.803 661.755 -181.411C651.728 -172.024 641.666 -162.751 631.253 -154.163L631.254 -154.162C609.869 -136.074 597.635 -120.026 591.987 -105.067C586.347 -90.1254 587.258 -76.2212 592.26 -62.3674C597.27 -48.4938 606.38 -34.6787 617.136 -19.9377C627.543 -5.67535 639.495 9.45853 650.673 26.2781L651.752 27.9109L651.76 27.9226L651.766 27.9344C667.956 55.7862 686.739 82.336 708.919 94.6111C719.988 100.737 731.892 103.301 744.752 100.703C757.62 98.1033 771.499 90.3238 786.488 75.6638C806.273 54.0069 828.854 30.9648 846.574 5.54861C864.288 -19.8593 877.103 -47.5857 877.388 -78.5774C874.467 -112.63 869.464 -163.437 852.962 -202.243C844.711 -221.646 833.608 -237.993 818.506 -247.759ZM995.436 -164.698C1051.68 -262.125 1182.63 -304.961 1286.47 -263.432C1304.91 -256.402 1323.09 -248.621 1341.19 -240.742C1359.09 -232.953 1377.37 -226.36 1396.29 -221.732H1396.29C1409.8 -218.572 1423.57 -216.767 1437.32 -214.674C1451.06 -212.583 1464.76 -210.205 1478.1 -205.901H1478.1C1500.52 -199.553 1515.52 -188.369 1524.91 -174.172C1534.3 -159.983 1538.05 -142.83 1538.07 -124.591C1538.1 -88.2022 1523.24 -47.3542 1508.29 -16.6731V-16.5715L1508.25 -16.4768C1497.04 9.68359 1485.57 37.2613 1468.4 57.533C1451.2 77.8409 1428.27 90.8308 1394.2 87.8162C1359.37 85.2292 1324.19 70.5327 1301.66 43.0965L1301.66 43.0955C1294 33.7289 1287.97 23.395 1282.34 12.8582C1276.69 2.3075 1271.45 -8.42157 1265.31 -18.6545L1265.31 -18.6613L1265.31 -18.6692C1235.26 -72.7631 1171.17 -98.7705 1111.18 -87.6457L1111.17 -87.6438L1111.16 -87.6418C1082.41 -83.8656 1052.17 -78.0332 1023.72 -87.6438V-87.6447C989.453 -97.9267 976.483 -134.566 995.436 -164.698ZM1286.1 -262.497C1182.71 -303.856 1052.28 -261.174 996.296 -164.181L996.291 -164.172L996.286 -164.164C977.815 -134.8 990.206 -99.2383 1023.24 -88.841L1024.03 -88.5998L1024.03 -88.5969L1024.04 -88.5949C1052.21 -79.0794 1082.16 -84.8442 1111.01 -88.635C1171.36 -99.8248 1235.9 -73.6712 1266.17 -19.1701L1267.32 -17.2404C1272.98 -7.56268 1277.95 2.53436 1283.22 12.3846C1288.85 22.9048 1294.84 33.1692 1302.43 42.4588L1303.49 43.7244C1325.85 70.0912 1360.19 84.2849 1394.27 86.8162L1394.28 86.8172C1427.98 89.8014 1450.61 76.9793 1467.63 56.8846C1484.6 36.8614 1495.98 9.63025 1507.14 -16.4465L1507.08 -16.4778L1507.3 -16.925C1522.26 -47.5816 1537.09 -88.3567 1537.06 -124.59C1537.05 -142.699 1533.32 -159.641 1524.07 -173.618C1514.83 -187.587 1500.05 -198.643 1477.82 -204.935L1477.81 -204.941C1464.55 -209.223 1450.91 -211.591 1437.17 -213.682C1423.45 -215.771 1409.62 -217.584 1396.06 -220.756L1396.05 -220.757C1377.06 -225.402 1358.73 -232.016 1340.79 -239.822C1322.69 -247.7 1304.53 -255.474 1286.11 -262.494L1286.1 -262.497ZM166.716 -288.402C206.808 -298.04 249.521 -294.92 287.436 -280.626L289.085 -280.012C322.536 -267.441 352.12 -250.283 383.418 -234.31L386.502 -232.742L386.513 -232.738L386.524 -232.732C398.242 -226.066 413.165 -220.096 428.988 -213.828C444.797 -207.567 461.491 -201.012 476.694 -193.187C507.079 -177.546 531.703 -156.725 531.313 -122.779L531.312 -122.718L531.297 -122.659C521.612 -85.1341 490.194 -70.3919 453.937 -63.4279C435.804 -59.9451 416.412 -58.3973 397.855 -56.9289C379.283 -55.4594 361.558 -54.0698 346.699 -50.9094L346.681 -50.9055C326.489 -47.3303 308.315 -42.0504 295.399 -32.0149C282.522 -22.0088 274.823 -7.23621 275.651 15.4705L275.652 15.5056L275.648 15.5408C274.323 28.2588 269.001 37.058 261.192 42.9637C253.401 48.8557 243.178 51.8364 232.092 53.0213C209.946 55.388 184.148 50.6061 166.853 47.2517H166.815L166.74 47.2283C161.37 45.509 150.32 43.7604 137.068 41.5242C123.846 39.293 108.486 36.583 94.5759 32.9431C80.6861 29.3085 68.1619 24.7274 60.6677 18.7146C56.9135 15.7024 54.3738 12.2925 53.6003 8.41873C52.8248 4.53409 53.8444 0.279785 57.0076 -4.37326L57.0212 -4.39279L57.0369 -4.41135C64.4856 -13.378 72.2221 -21.4105 79.5125 -29.1809C86.8088 -36.9576 93.6583 -44.473 99.3669 -52.4338C110.767 -68.3309 117.617 -86.0008 114.27 -111.016L114.268 -111.027C112.273 -128.805 102.355 -143.602 91.8474 -158.319C81.3671 -172.997 70.2889 -187.605 66.2371 -204.894L66.2312 -204.921C61.6884 -230.773 76.8013 -249.264 97.9646 -262.445C119.126 -275.624 146.464 -283.587 166.716 -288.402ZM287.086 -279.687C249.352 -293.913 206.842 -297.016 166.95 -287.426L166.949 -287.425C146.717 -282.615 119.511 -274.682 98.4949 -261.593C77.4883 -248.51 62.7913 -230.368 67.2146 -205.122L67.407 -204.324C71.5529 -187.618 82.3064 -173.408 92.6638 -158.902C103.157 -144.206 113.233 -129.215 115.264 -111.15C118.651 -85.8354 111.702 -67.9131 100.182 -51.8488C94.4315 -43.8291 87.5413 -36.2713 80.2449 -28.4944C72.9487 -20.7177 65.2452 -12.7219 57.8269 -3.79416C54.7764 0.699066 53.877 4.67758 54.5847 8.22244C55.2955 11.7818 57.6462 15.0032 61.2957 17.9314C68.6097 23.7998 80.9487 28.34 94.8298 31.9724C108.691 35.5997 124.012 38.3026 137.235 40.534C150.39 42.7538 161.523 44.5146 166.999 46.2576L170.341 46.9021C187.511 50.184 211.368 54.2266 231.985 52.0232C242.977 50.8484 252.998 47.9023 260.587 42.1629C268.152 36.441 273.343 27.9111 274.646 15.4646C273.819 -7.50748 281.634 -22.5895 294.784 -32.8069C307.899 -42.9976 326.273 -48.3105 346.487 -51.8908C361.424 -55.0679 379.224 -56.4619 397.776 -57.9299C416.343 -59.3991 435.679 -60.9428 453.748 -64.4133C489.878 -71.3528 520.758 -85.9545 530.309 -122.852C530.662 -156.149 506.538 -176.696 476.235 -192.294C461.085 -200.093 444.439 -206.629 428.619 -212.896C412.813 -219.156 397.818 -225.152 386.027 -231.859V-231.86C353.001 -248.564 322.24 -266.686 287.089 -279.686L287.086 -279.687ZM1163.13 -209.083C1203.49 -235.425 1244.83 -228.292 1286.24 -213.629C1307.09 -206.249 1328.06 -196.918 1348.88 -188.992C1369.74 -181.053 1390.51 -174.492 1411.14 -172.569L1411.59 -172.526V-172.494C1431.56 -170.606 1449.78 -165.616 1462.6 -155.371C1475.55 -145.023 1482.92 -129.363 1481.06 -106.341L1481.06 -106.34C1479.22 -79.4914 1469.31 -48.1813 1452.22 -23.5637C1435.12 1.05615 1410.8 19.0426 1380.13 19.073H1380.11L1380.1 19.0721C1356.78 17.4081 1339.62 4.76807 1325.19 -11.4865C1317.98 -19.6124 1311.43 -28.6536 1305.14 -37.6926C1298.84 -46.7397 1292.8 -55.7743 1286.56 -63.9289L1286.55 -63.9377L1286.55 -63.9475C1266.97 -92.012 1237.46 -111.336 1205.41 -122.571L1205.4 -122.576C1201.02 -124.293 1196.54 -125.857 1192.04 -127.431C1187.55 -129.004 1183.04 -130.588 1178.62 -132.345C1169.79 -135.856 1161.27 -140.066 1153.85 -146.288L1153.32 -146.702C1142.22 -155.43 1139.03 -167.377 1141.27 -178.848C1143.55 -190.473 1151.39 -201.602 1162.18 -208.454L1163.13 -209.083ZM739.892 -170.463C758.141 -180.259 772.022 -181.741 782.593 -177.55C793.156 -173.362 800.262 -163.568 805.101 -151.162C814.772 -126.37 815.539 -90.744 816.441 -66.9807L816.49 -65.2932C816.885 -47.6336 813.767 -23.4664 804.735 -5.55783C800.072 3.68921 793.808 11.313 785.592 15.4812C777.359 19.6577 767.234 20.3292 754.939 15.8015L754.922 15.7947L754.905 15.7869C741.097 9.49863 729.523 -0.143646 718.932 -10.927C708.358 -21.6936 698.7 -33.6674 688.816 -44.5569L688.809 -44.5647C676.601 -58.5718 670.716 -71.5937 669.541 -83.7356C668.365 -95.8811 671.907 -107.084 678.432 -117.439C691.464 -138.115 716.458 -155.498 739.859 -170.444L739.875 -170.453L739.892 -170.463ZM1285.91 -212.684C1244.25 -227.433 1202.98 -234.429 1162.73 -207.619L1162.72 -207.613C1152.14 -200.897 1144.47 -189.991 1142.26 -178.655C1140.08 -167.52 1143.16 -155.964 1153.94 -147.488L1154.46 -147.088L1154.47 -147.08L1154.48 -147.072C1161.79 -140.94 1170.2 -136.774 1178.99 -133.278C1183.39 -131.529 1187.88 -129.951 1192.37 -128.377C1196.86 -126.807 1201.35 -125.24 1205.74 -123.518C1237.94 -112.234 1267.63 -92.8056 1287.36 -64.5393C1293.61 -56.3608 1299.68 -47.2911 1305.96 -38.2658C1312.25 -29.2323 1318.77 -20.2318 1325.94 -12.1526C1340.27 3.9971 1357.2 16.4227 1380.14 18.0681C1410.37 18.0344 1434.42 0.316498 1451.39 -24.136C1468.37 -48.5932 1478.23 -79.7262 1480.06 -106.408V-106.415L1480.14 -107.475C1481.67 -129.629 1474.44 -144.629 1461.98 -154.587C1449.29 -164.73 1431.11 -169.691 1411.05 -171.539L1410.59 -171.581V-171.615C1389.98 -173.605 1369.25 -180.163 1348.52 -188.054C1327.6 -196.016 1306.76 -205.3 1285.91 -212.684ZM782.222 -176.617C772.043 -180.653 758.492 -179.307 740.377 -169.584C716.957 -154.626 692.171 -137.355 679.281 -116.904C672.844 -106.691 669.39 -95.707 670.54 -83.8322C671.69 -71.956 677.451 -59.126 689.559 -45.2317L691.42 -43.1662C700.706 -32.7916 709.743 -21.7152 719.648 -11.6301C730.195 -0.892059 741.665 8.65253 755.31 14.8689C767.381 19.3081 777.201 18.6127 785.137 14.5867C793.095 10.5496 799.231 3.12766 803.839 -6.009C813.057 -24.2876 816.072 -49.2503 815.438 -66.9338L815.088 -76.3723C814.203 -99.458 812.563 -129.273 804.167 -150.798C799.372 -163.09 792.41 -172.578 782.222 -176.617ZM173.736 -217.619C240.812 -225.871 311.322 -195.857 364.473 -156.9L364.477 -156.897C373.987 -149.78 381.837 -140.056 384.41 -129.806C385.698 -124.673 385.663 -119.404 383.842 -114.277C382.02 -109.15 378.425 -104.197 372.645 -99.6779L372.644 -99.6789C361.767 -91.1504 349.003 -85.8689 335.853 -81.4729C322.671 -77.0658 309.168 -73.5642 296.641 -68.5666L296.624 -68.5598L296.606 -68.5539C268.798 -59.7867 256.558 -44.0941 245.445 -29.0793C234.323 -14.0516 224.287 0.370453 200.885 6.17947L200.886 6.18045C191.244 8.60114 179.407 9.04898 169.134 6.34842C158.858 3.64706 150.069 -2.2312 146.706 -12.5158L146.702 -12.5285L146.698 -12.5422C145.021 -18.8325 145.743 -25.0995 147.385 -31.2248C149.023 -37.3309 151.602 -43.3803 153.655 -49.1594L153.658 -49.1692C158.761 -62.6569 161.909 -76.2229 162.549 -89.9602V-89.9719C164.274 -114.647 154.721 -137.671 141.571 -158.353V-158.354C131.277 -174.287 130.366 -187.882 136.625 -198.146C142.808 -208.284 155.888 -214.996 173.296 -217.54V-217.565L173.736 -217.619ZM363.876 -156.094C310.951 -194.883 240.901 -224.692 174.319 -216.678V-216.599H173.784C156.335 -214.113 143.479 -207.459 137.481 -197.623C131.589 -187.96 132.218 -175.053 141.945 -159.631L142.416 -158.895L142.418 -158.892C155.619 -138.13 165.292 -114.892 163.55 -89.9153L163.551 -89.9143C162.906 -76.0568 159.731 -62.3896 154.599 -48.8244L154.6 -48.8235C152.518 -42.9611 149.979 -37.0222 148.355 -30.9651C146.737 -24.9317 146.054 -18.8637 147.664 -12.8147C150.887 -2.9758 159.312 2.72855 169.389 5.37772C179.474 8.02856 191.136 7.59308 200.641 5.20682H200.643C223.656 -0.505432 233.502 -14.6293 244.638 -29.676C255.783 -44.7329 268.179 -60.6394 296.288 -69.5061C308.835 -74.5101 322.458 -78.0531 335.535 -82.425C348.651 -86.8101 361.287 -92.0476 372.027 -100.469C377.683 -104.892 381.149 -109.695 382.896 -114.613C384.643 -119.529 384.684 -124.594 383.437 -129.562C380.939 -139.514 373.274 -149.059 363.876 -156.093V-156.094Z" fill="url(#paint0_linear_474_2188)"/>
<defs>
<linearGradient id="paint0_linear_474_2188" x1="505.644" y1="17.4989" x2="505.644" y2="964" gradientUnits="userSpaceOnUse">
<stop stop-color="#FFF1D8" stop-opacity="0"/>
<stop offset="0.514423" stop-color="#FFF1D8"/>
<stop offset="1" stop-color="#FFF1D8" stop-opacity="0"/>
</linearGradient>
</defs>
</svg>
