<svg width="36" height="46" viewBox="0 0 36 46" fill="none" xmlns="http://www.w3.org/2000/svg">
<g filter="url(#filter0_ii_1566_151)">
<path fill-rule="evenodd" clip-rule="evenodd" d="M21.4779 0.00161223C21.6483 -0.0197147 21.7577 0.185585 21.6501 0.31932C19.7831 2.64064 17.6843 8.15057 20.3067 11.2223C23.1172 14.5143 27.0865 12.8674 27.3238 10.181C27.3349 10.0557 27.457 9.96626 27.5733 10.0145C29.7538 10.9195 32.4804 14.8373 31.8638 19.7456C31.8546 19.8188 31.802 19.8795 31.7316 19.9017C30.6266 20.2505 29.5635 21.071 28.8322 22.2586C27.4445 24.5119 27.7765 27.2336 29.5736 28.3377C31.1214 29.2886 33.2513 28.7295 34.699 27.1165C34.7557 27.0532 34.8477 27.0338 34.924 27.0713L35.8961 27.5485C35.9758 27.5877 36.0166 27.6776 35.9936 27.7633L33.4159 37.372C33.4013 37.4263 33.3629 37.4711 33.3113 37.4938L25.8542 40.78C25.8237 40.7934 25.7974 40.8148 25.778 40.8419L22.1448 45.9223C22.1099 45.9711 22.0536 46.0001 21.9935 46.0001H14.7387C14.684 46.0001 14.6321 45.976 14.5967 45.9343L10.5916 41.2066C10.5723 41.1838 10.5478 41.166 10.5201 41.1547L2.45416 37.8589C2.40786 37.84 2.37114 37.8032 2.35231 37.7569L0.013679 32.0071C-0.0156806 31.9349 0.00319558 31.8521 0.0609467 31.7997L0.907464 31.032C0.98052 30.9658 1.09248 30.9684 1.16531 31.0349C2.65019 32.391 4.76513 32.5631 6.03425 31.378C7.38031 30.121 7.26516 27.8132 5.77705 26.2234C4.90229 25.2889 3.74782 24.8104 2.67134 24.8301C2.57822 24.8318 2.49489 24.7689 2.47855 24.6774C1.88243 21.3367 3.59933 17.4933 5.68797 16.4769C5.78772 16.4283 5.9035 16.4864 5.93808 16.5917C6.71465 18.9563 9.55075 20.6145 11.9869 19.6957C15.1008 18.5213 14.2236 12.6452 9.01591 11.9783C8.91781 11.9658 8.84163 11.8833 8.84944 11.7848C9.13691 8.15968 12.8013 1.08747 21.4779 0.00161223ZM16.2896 29.8626C16.2723 29.9265 16.2224 29.9765 16.1583 29.9937L10.5139 31.5109C10.4327 31.5327 10.3763 31.6062 10.3763 31.6902V32.0837C10.3763 32.1677 10.4327 32.2412 10.5139 32.263L16.1583 33.78C16.2223 33.7972 16.2723 33.8471 16.2896 33.9111L17.8084 39.5489C17.8302 39.6299 17.9038 39.6863 17.9879 39.6863H18.3819C18.466 39.6863 18.5396 39.6299 18.5614 39.5489L20.0804 33.9111C20.0976 33.8471 20.1476 33.7972 20.2116 33.78L25.8559 32.263C25.9371 32.2412 25.9935 32.1677 25.9935 32.0837V31.6902C25.9935 31.6062 25.9371 31.5327 25.8559 31.5108L20.2116 29.9937C20.1476 29.9765 20.0976 29.9265 20.0804 29.8626L18.5614 24.225C18.5396 24.1439 18.466 24.0876 18.3819 24.0876H17.9879C17.9038 24.0876 17.8302 24.1439 17.8084 24.225L16.2896 29.8626Z" fill="url(#paint0_linear_1566_151)"/>
</g>
<defs>
<filter id="filter0_ii_1566_151" x="0" y="-0.76359" width="36" height="47.5273" filterUnits="userSpaceOnUse" color-interpolation-filters="sRGB">
<feFlood flood-opacity="0" result="BackgroundImageFix"/>
<feBlend mode="normal" in="SourceGraphic" in2="BackgroundImageFix" result="shape"/>
<feColorMatrix in="SourceAlpha" type="matrix" values="0 0 0 0 0 0 0 0 0 0 0 0 0 0 0 0 0 0 127 0" result="hardAlpha"/>
<feOffset dy="0.763665"/>
<feGaussianBlur stdDeviation="0.381832"/>
<feComposite in2="hardAlpha" operator="arithmetic" k2="-1" k3="1"/>
<feColorMatrix type="matrix" values="0 0 0 0 1 0 0 0 0 1 0 0 0 0 1 0 0 0 0.25 0"/>
<feBlend mode="normal" in2="shape" result="effect1_innerShadow_1566_151"/>
<feColorMatrix in="SourceAlpha" type="matrix" values="0 0 0 0 0 0 0 0 0 0 0 0 0 0 0 0 0 0 127 0" result="hardAlpha"/>
<feOffset dy="-0.763665"/>
<feGaussianBlur stdDeviation="0.381832"/>
<feComposite in2="hardAlpha" operator="arithmetic" k2="-1" k3="1"/>
<feColorMatrix type="matrix" values="0 0 0 0 0.134416 0 0 0 0 0.0747743 0 0 0 0 0.304167 0 0 0 0.45 0"/>
<feBlend mode="normal" in2="effect1_innerShadow_1566_151" result="effect2_innerShadow_1566_151"/>
</filter>
<linearGradient id="paint0_linear_1566_151" x1="18" y1="7.43866e-05" x2="18" y2="46.0001" gradientUnits="userSpaceOnUse">
<stop stop-color="#28BEFF"/>
<stop offset="1" stop-color="#283CFF"/>
</linearGradient>
</defs>
</svg>
