<svg width="80" height="16" viewBox="0 0 80 16" fill="none" xmlns="http://www.w3.org/2000/svg">
<path d="M-139 8L-137.88 3.93884C-136.8 0.0203862 -131.256 0.0203871 -130.175 3.93884L-127.936 12.0612C-126.855 15.9796 -121.311 15.9796 -120.231 12.0612L-117.991 3.93884C-116.911 0.0203862 -111.367 0.0203862 -110.287 3.93884L-108.047 12.0612C-106.966 15.9796 -101.423 15.9796 -100.342 12.0612L-98.1025 3.93884C-97.0218 0.0203871 -91.4784 0.0203862 -90.3977 3.93884L-88.1578 12.0612C-87.0771 15.9796 -81.5341 15.9796 -80.4535 12.0612L-78.2135 3.93884C-77.1329 0.0203871 -71.5894 0.0203862 -70.5088 3.93884L-68.2688 12.0612C-67.1882 15.9796 -61.6452 15.9796 -60.5645 12.0612L-58.3246 3.93884C-57.2439 0.0203871 -51.7005 0.0203862 -50.6198 3.93884L-48.3799 12.0612C-47.2992 15.9796 -41.7563 15.9796 -40.6756 12.0612L-38.4357 3.93884C-37.355 0.0203862 -31.8116 0.0203871 -30.7309 3.93884L-28.491 12.0612C-27.4103 15.9796 -21.8674 15.9796 -20.7867 12.0612L-18.5468 3.93884C-17.4661 0.0203871 -11.9227 0.0203862 -10.842 3.93884L-8.60209 12.0612C-7.52141 15.9796 -1.97849 15.9796 -0.89779 12.0612L1.34212 3.93884C2.42282 0.0203862 7.96623 0.0203852 9.04691 3.93884L11.2868 12.0612C12.3675 15.9796 17.9104 15.9796 18.9911 12.0612L21.231 3.93884C22.3117 0.0203871 27.8551 0.0203881 28.9358 3.93884L31.1757 12.0612C32.2564 15.9796 37.7993 15.9796 38.88 12.0612L40.0002 8L41.1195 3.93884C42.2002 0.0203862 47.7436 0.0203871 48.8243 3.93884L51.0642 12.0612C52.1449 15.9796 57.6883 15.9796 58.769 12.0612L61.0084 3.93884C62.0891 0.0203862 67.6325 0.0203862 68.7132 3.93884L70.9531 12.0612C72.0338 15.9796 77.5767 15.9796 78.6574 12.0612L80.8973 3.93884C81.978 0.0203871 87.5214 0.0203862 88.6021 3.93884L90.842 12.0612C91.9227 15.9796 97.4656 15.9796 98.5463 12.0612L100.786 3.93884C101.867 0.0203871 107.41 0.0203862 108.491 3.93884L110.731 12.0612C111.812 15.9796 117.355 15.9796 118.435 12.0612L120.675 3.93884C121.756 0.0203871 127.299 0.0203862 128.38 3.93884L130.62 12.0612C131.701 15.9796 137.243 15.9796 138.324 12.0612L140.564 3.93884C141.645 0.0203862 147.188 0.0203871 148.269 3.93884L150.509 12.0612C151.589 15.9796 157.132 15.9796 158.213 12.0612L160.453 3.93884C161.534 0.0203871 167.077 0.0203862 168.158 3.93884L170.398 12.0612C171.478 15.9796 177.021 15.9796 178.102 12.0612L180.342 3.93884C181.423 0.0203862 186.966 0.0203852 188.047 3.93884L190.287 12.0612C191.367 15.9796 196.91 15.9796 197.991 12.0612L200.231 3.93884C201.311 0.0203871 206.855 0.0203881 207.936 3.93884L210.175 12.0612C211.256 15.9796 216.799 15.9796 217.88 12.0612L219 8" stroke="#CFED00"/>
</svg>
